<svg width="512" height="512" viewBox="0 0 512 512" fill="none" xmlns="http://www.w3.org/2000/svg">
  <defs>
    <filter id="shadow" x="35" y="40" width="442" height="438" filterUnits="userSpaceOnUse" color-interpolation-filters="sRGB">
      <feDropShadow dx="0" dy="18" stdDeviation="14" flood-color="#010101" flood-opacity="0.24"/>
    </filter>
  </defs>

  <rect width="512" height="512" rx="118" fill="#F7F8FA"/>

  <g filter="url(#shadow)">
    <path d="M88 184C88 132.086 130.086 90 182 90H330C381.914 90 424 132.086 424 184V285C424 326.421 390.421 360 349 360H163C121.579 360 88 326.421 88 285V184Z" fill="#010101"/>
    <path d="M72 174C72 126.504 110.504 88 158 88H338C385.496 88 424 126.504 424 174V262C424 299.555 393.555 330 356 330H140C102.445 330 72 299.555 72 262V174Z" fill="#25F4EE"/>
    <path d="M101 154C101 118.101 130.101 89 166 89H356C391.899 89 421 118.101 421 154V253C421 287.242 393.242 315 359 315H163C128.758 315 101 287.242 101 253V154Z" fill="#FE2C55"/>
    <path d="M82 157C82 117.788 113.788 86 153 86H338C377.212 86 409 117.788 409 157V249C409 286.003 379.003 316 342 316H149C111.997 316 82 286.003 82 249V157Z" fill="#FFFFFF"/>
  </g>

  <path d="M117 298C116.5 245 158 204 210 204H298C352 204 394 246 394 298V333H117V298Z" fill="#010101"/>
  <path d="M146 294C146 234.905 193.905 187 253 187C312.095 187 360 234.905 360 294V315C360 373.542 312.542 421 254 421C195.458 421 148 373.542 148 315L146 294Z" fill="#010101"/>
  <path d="M178 301C178 258.474 212.474 224 255 224C297.526 224 332 258.474 332 301V323C332 365.526 297.526 400 255 400C212.474 400 178 365.526 178 323V301Z" fill="#FFFFFF"/>
  <path d="M171 279C202 287 226 275 236 247C254 274 282 284 333 282C325 224 292 194 247 194C201 194 174 226 171 279Z" fill="#010101"/>
  <path d="M173 268C147 268 129 289 129 318C129 342 147 359 174 359V268Z" fill="#010101"/>
  <path d="M337 268C363 268 382 289 382 318C382 342 364 359 337 359V268Z" fill="#010101"/>

  <path d="M229 309C229 317.837 223.627 325 217 325C210.373 325 205 317.837 205 309C205 300.163 210.373 293 217 293C223.627 293 229 300.163 229 309Z" fill="#010101"/>
  <path d="M304 309C304 317.837 298.627 325 292 325C285.373 325 280 317.837 280 309C280 300.163 285.373 293 292 293C298.627 293 304 300.163 304 309Z" fill="#010101"/>
  <path d="M258 300C249 319 247 331 257 337C263 341 273 339 281 333" stroke="#010101" stroke-width="18" stroke-linecap="round" stroke-linejoin="round"/>
  <path d="M270 360C281 354 293 356 301 367" stroke="#010101" stroke-width="18" stroke-linecap="round"/>

  <path d="M209 267C221 260 234 260 245 266" stroke="#010101" stroke-width="16" stroke-linecap="round"/>
  <path d="M282 266C293 260 306 260 318 267" stroke="#010101" stroke-width="16" stroke-linecap="round"/>

  <path d="M254 374C254 360.193 265.193 349 279 349C292.807 349 304 360.193 304 374V388L309.6 382.4C318.972 373.028 334.168 373.028 343.54 382.4C352.912 391.772 352.912 406.968 343.54 416.34L296.677 463.203C287.305 472.575 272.095 472.575 262.723 463.203L215.86 416.34C206.488 406.968 206.488 391.772 215.86 382.4C225.232 373.028 240.428 373.028 249.8 382.4L254 386.6V374Z" fill="#010101"/>
  <path d="M250 382L255 387V374C255 360.193 266.193 349 280 349C284.5 349 288.7 350.2 292.3 352.3C283.4 356.4 277.2 365.4 277.2 375.8V427L238.2 388C241.7 386.4 245.8 386.7 250 382Z" fill="#25F4EE"/>
  <path d="M314 378.3C323.4 373.5 335.3 374.9 343.5 383.1C352.9 392.5 352.9 407.7 343.5 417.1L296.7 463.9C289.1 471.5 277.6 472.7 268.7 467.6L318.8 417.2C330.8 405.2 329.2 389.4 314 378.3Z" fill="#FE2C55"/>
</svg>
