<svg xmlns="http://www.w3.org/2000/svg" width="1200" height="720" viewBox="0 0 1200 720">
  <rect width="1200" height="720" fill="#f5f7fb"/>
  <rect x="72" y="58" width="1056" height="604" rx="22" fill="#ffffff" stroke="#d8dee9"/>
  <rect x="72" y="58" width="1056" height="74" rx="22" fill="#eef2f7"/>
  <circle cx="112" cy="95" r="10" fill="#ff5f57"/>
  <circle cx="142" cy="95" r="10" fill="#ffbd2e"/>
  <circle cx="172" cy="95" r="10" fill="#28c840"/>
  <rect x="224" y="80" width="696" height="30" rx="15" fill="#ffffff" stroke="#c8d0dc"/>
  <text x="250" y="101" font-family="Arial, sans-serif" font-size="18" fill="#111827">chrome://extensions/</text>
  <text x="112" y="188" font-family="Arial, sans-serif" font-size="34" font-weight="700" fill="#111827">扩展程序</text>
  <text x="112" y="232" font-family="Arial, sans-serif" font-size="20" fill="#526071">在地址栏输入 chrome://extensions/ 打开这里</text>
  <rect x="840" y="166" width="206" height="48" rx="24" fill="#111827"/>
  <circle cx="1020" cy="190" r="18" fill="#00f2ea"/>
  <text x="866" y="197" font-family="Arial, sans-serif" font-size="18" font-weight="700" fill="#ffffff">开发者模式</text>
  <path d="M1020 172 L1034 190 L1020 208 Z" fill="#ffffff" opacity="0.9"/>
  <rect x="112" y="286" width="300" height="64" rx="12" fill="#00f2ea"/>
  <text x="151" y="326" font-family="Arial, sans-serif" font-size="22" font-weight="700" fill="#061017">加载已解压的扩展程序</text>
  <rect x="112" y="402" width="458" height="146" rx="18" fill="#ffffff" stroke="#d8dee9"/>
  <rect x="136" y="426" width="64" height="64" rx="12" fill="#f5b400"/>
  <path d="M146 488 L146 438 L168 454 L190 438 L190 488 Z" fill="#050505"/>
  <circle cx="160" cy="470" r="9" fill="#ffffff"/>
  <circle cx="176" cy="470" r="9" fill="#ffffff"/>
  <circle cx="158" cy="470" r="4" fill="#050505"/>
  <circle cx="174" cy="470" r="4" fill="#050505"/>
  <text x="224" y="458" font-family="Arial, sans-serif" font-size="24" font-weight="700" fill="#111827">PinIG Media Downloader</text>
  <text x="224" y="492" font-family="Arial, sans-serif" font-size="18" fill="#64748b">本地开发者模式加载</text>
  <path d="M795 222 C680 242 496 278 335 306" fill="none" stroke="#ff0050" stroke-width="7" stroke-linecap="round"/>
  <path d="M347 285 L314 310 L354 321" fill="none" stroke="#ff0050" stroke-width="7" stroke-linecap="round" stroke-linejoin="round"/>
</svg>
